# xmcd
#
# Track frame offsets:
#	150
#	14731
#	21920
#	41159
#	53565
#	65677
#	82152
#	98423
#	100933
#	109070
#	124649
#	127069
#	139612
#	149630
#	162550
#	174012
#	188881
#	193778
#	212730
#	223471
#
# Disc length: 3221 seconds
#
# Revision: 0
# Processed by: cddbd v1.5.2PL0 Copyright (c) Steve Scherf et al.
# Submitted via: EasyCDDAExtractor 2010.6.0.0
#
DISCID=330c9314
DTITLE=Beastie Boys - Check Your Head (Remastered Edition)
DYEAR=1992
DGENRE=Hip Hop/Rap
TTITLE0=Jimmy James
TTITLE1=Funky Boss
TTITLE2=Pass The Mic
TTITLE3=Gratitude
TTITLE4=Lighten Up
TTITLE5=Finger Lickin' Good
TTITLE6=So What'Cha Want
TTITLE7=The Biz vs. The Nuge
TTITLE8=Time For Livin'
TTITLE9=Something's Got To Give
TTITLE10=The Blue Nun
TTITLE11=Stand Together
TTITLE12=Pow
TTITLE13=The Maestro
TTITLE14=Groove Holmes
TTITLE15=Live At P.J.'s
TTITLE16=Mark On The Bus
TTITLE17=Professor Booty
TTITLE18=In 3's
TTITLE19=Namaste
EXTD=
EXTT0=
EXTT1=
EXTT2=
EXTT3=
EXTT4=
EXTT5=
EXTT6=
EXTT7=
EXTT8=
EXTT9=
EXTT10=
EXTT11=
EXTT12=
EXTT13=
EXTT14=
EXTT15=
EXTT16=
EXTT17=
EXTT18=
EXTT19=
PLAYORDER=
